<?xml version="1.0" encoding="utf-8"?><!-- Uploaded to: SVG Repo, www.svgrepo.com, Generator: SVG Repo Mixer Tools -->
<svg width="800px" height="800px" viewBox="0 0 24 24" fill="none" xmlns="http://www.w3.org/2000/svg">
<path d="M9 11C9.55229 11 10 10.5523 10 10C10 9.44771 9.55229 9 9 9C8.44771 9 8 9.44771 8 10C8 10.5523 8.44771 11 9 11Z" fill="#0F0F0F"/>
<path fill-rule="evenodd" clip-rule="evenodd" d="M17 10C17 11.66 16.4944 13.202 15.6288 14.4802C16.3586 14.9529 16.87 15.7341 16.9785 16.6391C18.6527 16.0088 19.3067 15.2776 19.6313 14.4481C19.8523 13.8833 19.9555 13.1857 19.993 12.2641C20.0235 11.5134 20.0095 10.6959 20.0028 9.73408C19.4035 9.38867 19 8.74145 19 8C19 6.89543 19.8954 6 21 6C22.1046 6 23 6.89543 23 8C23 8.73902 22.5992 9.38443 22.0031 9.73067C22.01 10.602 22.0268 11.4744 21.9914 12.3453C21.9507 13.3455 21.8352 14.3042 21.4937 15.1769C20.8285 16.877 19.4264 17.9713 17 18.7472V19C17 20.6569 15.6569 22 14 22H4C2.34315 22 1 20.6569 1 19V17C1 15.9436 1.54602 15.0147 2.37124 14.4802C1.50561 13.202 1 11.66 1 10C1 5.58172 4.58172 2 9 2C13.4183 2 17 5.58172 17 10ZM9 16C12.3137 16 15 13.3137 15 10C15 6.68629 12.3137 4 9 4C5.68629 4 3 6.68629 3 10C3 13.3137 5.68629 16 9 16ZM9 18C11.0111 18 12.8489 17.2579 14.2544 16.0327C14.6835 16.1452 15 16.5356 15 17V19C15 19.5523 14.5523 20 14 20H4C3.44772 20 3 19.5523 3 19V17C3 16.5356 3.31652 16.1452 3.74558 16.0327C5.15114 17.2579 6.98891 18 9 18Z" fill="#0F0F0F"/>
</svg>